STARTFONT 2.1
FONT -FontForge-Comic Neue-Book-R-Normal--20-190-75-75-P-89-ISO10646-1
SIZE 19 75 75
FONTBOUNDINGBOX 27 23 -7 -4
COMMENT "Generated by fontforge, http://fontforge.sourceforge.net"
COMMENT "Copyright 2014 The Comic Neue Project Authors (https://github.com/crozynski/comicneue)"
STARTPROPERTIES 39
FOUNDRY "FontForge"
FAMILY_NAME "Comic Neue"
WEIGHT_NAME "Book"
SLANT "R"
SETWIDTH_NAME "Normal"
ADD_STYLE_NAME ""
PIXEL_SIZE 20
POINT_SIZE 190
RESOLUTION_X 75
RESOLUTION_Y 75
SPACING "P"
AVERAGE_WIDTH 89
CHARSET_REGISTRY "ISO10646"
CHARSET_ENCODING "1"
FONTNAME_REGISTRY ""
CHARSET_COLLECTIONS "ISO8859-2 ISO10646-1"
FONT_NAME "ComicNeue-Regular"
FACE_NAME "Comic Neue Regular"
COPYRIGHT "Copyright 2014 The Comic Neue Project Authors (https://github.com/crozynski/comicneue)"
FONT_VERSION "2.003"
FONT_ASCENT 16
FONT_DESCENT 4
UNDERLINE_POSITION -2
UNDERLINE_THICKNESS 1
X_HEIGHT 9
CAP_HEIGHT 13
RAW_ASCENT 800
RAW_DESCENT 200
NORM_SPACE 7
RELATIVE_WEIGHT 40
RELATIVE_SETWIDTH 50
SUPERSCRIPT_X 0
SUPERSCRIPT_Y 7
SUPERSCRIPT_SIZE 12
SUBSCRIPT_X 0
SUBSCRIPT_Y 1
SUBSCRIPT_SIZE 12
AVG_LOWERCASE_WIDTH 92
AVG_UPPERCASE_WIDTH 122
ENDPROPERTIES
CHARS 319
STARTCHAR nonmarkingreturn
ENCODING 13
SWIDTH 600 0
DWIDTH 12 0
BBX 1 1 0 0
BITMAP
00
ENDCHAR
STARTCHAR space
ENCODING 32
SWIDTH 334 0
DWIDTH 7 0
BBX 1 1 0 0
BITMAP
00
ENDCHAR
STARTCHAR exclam
ENCODING 33
SWIDTH 245 0
DWIDTH 5 0
BBX 1 14 2 0
BITMAP
80
80
80
80
80
80
80
80
80
80
80
00
80
80
ENDCHAR
STARTCHAR quotedbl
ENCODING 34
SWIDTH 275 0
DWIDTH 6 0
BBX 4 4 1 10
BITMAP
B0
B0
B0
B0
ENDCHAR
STARTCHAR numbersign
ENCODING 35
SWIDTH 740 0
DWIDTH 15 0
BBX 13 14 1 0
BITMAP
0220
0620
0460
0440
7FF8
0CC0
0880
0880
0880
FFF0
1100
3100
3300
2200
ENDCHAR
STARTCHAR dollar
ENCODING 36
SWIDTH 602 0
DWIDTH 12 0
BBX 9 16 1 -1
BITMAP
0800
1F00
6980
4880
4800
4800
7800
1C00
0F00
0980
0880
8880
C880
6900
3E00
0800
ENDCHAR
STARTCHAR percent
ENCODING 37
SWIDTH 720 0
DWIDTH 14 0
BBX 12 14 1 0
BITMAP
7840
C840
8C80
CD80
7900
0300
0200
0600
0400
0CE0
0930
1110
1130
20E0
ENDCHAR
STARTCHAR ampersand
ENCODING 38
SWIDTH 644 0
DWIDTH 13 0
BBX 11 14 1 0
BITMAP
1C00
3200
2100
2100
3200
1E00
1800
6400
46C0
8380
8180
C180
6340
3C20
ENDCHAR
STARTCHAR quotesingle
ENCODING 39
SWIDTH 196 0
DWIDTH 4 0
BBX 2 4 1 10
BITMAP
C0
C0
C0
C0
ENDCHAR
STARTCHAR parenleft
ENCODING 40
SWIDTH 346 0
DWIDTH 7 0
BBX 5 18 1 -2
BITMAP
08
10
30
20
40
40
C0
C0
80
80
C0
C0
40
40
20
20
10
18
ENDCHAR
STARTCHAR parenright
ENCODING 41
SWIDTH 346 0
DWIDTH 7 0
BBX 5 18 1 -2
BITMAP
80
C0
60
20
10
10
10
18
18
18
18
10
10
10
20
60
40
80
ENDCHAR
STARTCHAR asterisk
ENCODING 42
SWIDTH 394 0
DWIDTH 8 0
BBX 6 5 1 9
BITMAP
30
FC
78
70
48
ENDCHAR
STARTCHAR plus
ENCODING 43
SWIDTH 444 0
DWIDTH 9 0
BBX 7 7 1 2
BITMAP
10
10
10
FE
10
10
10
ENDCHAR
STARTCHAR comma
ENCODING 44
SWIDTH 164 0
DWIDTH 3 0
BBX 1 4 1 -2
BITMAP
80
80
80
80
ENDCHAR
STARTCHAR hyphen
ENCODING 45
SWIDTH 402 0
DWIDTH 8 0
BBX 6 1 1 5
BITMAP
FC
ENDCHAR
STARTCHAR period
ENCODING 46
SWIDTH 153 0
DWIDTH 3 0
BBX 1 2 1 0
BITMAP
80
80
ENDCHAR
STARTCHAR slash
ENCODING 47
SWIDTH 436 0
DWIDTH 9 0
BBX 7 16 1 -2
BITMAP
02
02
04
04
0C
08
18
10
10
20
20
60
40
40
80
80
ENDCHAR
STARTCHAR zero
ENCODING 48
SWIDTH 609 0
DWIDTH 12 0
BBX 10 14 1 0
BITMAP
0E00
3300
2180
4080
40C0
C040
C040
C040
C0C0
4080
4080
6180
3300
1E00
ENDCHAR
STARTCHAR one
ENCODING 49
SWIDTH 396 0
DWIDTH 8 0
BBX 6 14 1 0
BITMAP
10
30
70
D0
10
10
10
10
10
10
10
10
10
FC
ENDCHAR
STARTCHAR two
ENCODING 50
SWIDTH 523 0
DWIDTH 10 0
BBX 8 14 1 0
BITMAP
3C
62
C1
01
01
03
06
1C
30
60
40
C0
C0
FF
ENDCHAR
STARTCHAR three
ENCODING 51
SWIDTH 506 0
DWIDTH 10 0
BBX 8 14 1 0
BITMAP
3C
C6
02
03
02
06
1C
06
03
01
01
83
C6
3C
ENDCHAR
STARTCHAR four
ENCODING 52
SWIDTH 484 0
DWIDTH 10 0
BBX 8 14 1 0
BITMAP
04
04
0C
1C
14
34
64
44
C4
FF
04
04
04
04
ENDCHAR
STARTCHAR five
ENCODING 53
SWIDTH 542 0
DWIDTH 11 0
BBX 9 14 1 0
BITMAP
7F00
4000
4000
4000
7C00
6300
4100
0100
0180
0180
0100
8300
6600
3C00
ENDCHAR
STARTCHAR six
ENCODING 54
SWIDTH 542 0
DWIDTH 11 0
BBX 9 14 1 0
BITMAP
0400
1C00
3000
2000
6000
7E00
E300
C100
8180
8180
C100
4100
6300
3C00
ENDCHAR
STARTCHAR seven
ENCODING 55
SWIDTH 473 0
DWIDTH 9 0
BBX 8 14 1 0
BITMAP
FF
03
02
06
04
0C
08
18
10
10
20
20
40
40
ENDCHAR
STARTCHAR eight
ENCODING 56
SWIDTH 515 0
DWIDTH 10 0
BBX 8 14 1 0
BITMAP
3C
62
41
41
43
66
1C
76
C3
81
81
81
62
3C
ENDCHAR
STARTCHAR nine
ENCODING 57
SWIDTH 531 0
DWIDTH 11 0
BBX 8 14 1 0
BITMAP
3C
62
C1
81
81
81
81
43
3F
02
06
0C
18
30
ENDCHAR
STARTCHAR colon
ENCODING 58
SWIDTH 181 0
DWIDTH 4 0
BBX 2 9 1 0
BITMAP
C0
C0
00
00
00
00
00
80
80
ENDCHAR
STARTCHAR semicolon
ENCODING 59
SWIDTH 199 0
DWIDTH 4 0
BBX 2 11 1 -2
BITMAP
40
40
00
00
00
00
00
80
80
80
80
ENDCHAR
STARTCHAR less
ENCODING 60
SWIDTH 511 0
DWIDTH 10 0
BBX 8 10 1 0
BITMAP
01
06
0C
30
60
E0
30
1C
06
03
ENDCHAR
STARTCHAR equal
ENCODING 61
SWIDTH 462 0
DWIDTH 9 0
BBX 7 4 1 3
BITMAP
FE
00
00
FE
ENDCHAR
STARTCHAR greater
ENCODING 62
SWIDTH 541 0
DWIDTH 11 0
BBX 8 10 1 0
BITMAP
C0
70
18
0E
03
03
06
18
30
40
ENDCHAR
STARTCHAR question
ENCODING 63
SWIDTH 501 0
DWIDTH 10 0
BBX 8 14 1 0
BITMAP
7C
C6
82
03
03
02
06
0C
18
30
20
00
40
60
ENDCHAR
STARTCHAR at
ENCODING 64
SWIDTH 832 0
DWIDTH 17 0
BBX 14 14 1 -2
BITMAP
07C0
1C30
3018
600C
4784
4C84
C8C4
C884
C9CC
4F78
6000
2000
1830
0FE0
ENDCHAR
STARTCHAR A
ENCODING 65
SWIDTH 581 0
DWIDTH 12 0
BBX 10 14 1 0
BITMAP
0C00
0C00
0C00
1E00
1200
1200
2300
2100
7F00
F180
4080
C080
80C0
8040
ENDCHAR
STARTCHAR B
ENCODING 66
SWIDTH 620 0
DWIDTH 12 0
BBX 9 14 2 0
BITMAP
FC00
8300
8100
8100
8100
8300
FE00
8180
8080
8080
8080
8180
8700
F800
ENDCHAR
STARTCHAR C
ENCODING 67
SWIDTH 614 0
DWIDTH 12 0
BBX 11 14 1 0
BITMAP
0FC0
18C0
2040
6000
4000
C000
8000
8000
8000
8000
C000
6060
30C0
1F00
ENDCHAR
STARTCHAR D
ENCODING 68
SWIDTH 629 0
DWIDTH 13 0
BBX 10 14 2 0
BITMAP
F000
8C00
8300
8100
8080
8080
80C0
80C0
80C0
8080
8080
8180
8700
FC00
ENDCHAR
STARTCHAR E
ENCODING 69
SWIDTH 603 0
DWIDTH 12 0
BBX 9 14 2 0
BITMAP
FF80
8000
8000
8000
8000
8000
FF00
8000
8000
8000
8000
8000
8000
FF80
ENDCHAR
STARTCHAR F
ENCODING 70
SWIDTH 577 0
DWIDTH 12 0
BBX 9 14 2 0
BITMAP
FF80
8000
8000
8000
8000
8000
FF00
8000
8000
8000
8000
8000
8000
8000
ENDCHAR
STARTCHAR G
ENCODING 71
SWIDTH 716 0
DWIDTH 14 0
BBX 13 14 1 0
BITMAP
0F80
38C0
2060
4030
C000
C000
8000
8000
81F8
C130
4020
6060
30C0
0F00
ENDCHAR
STARTCHAR H
ENCODING 72
SWIDTH 723 0
DWIDTH 14 0
BBX 11 14 2 0
BITMAP
8020
8020
8020
8020
8020
8020
8FE0
FC20
8020
8020
8020
8020
8020
8020
ENDCHAR
STARTCHAR I
ENCODING 73
SWIDTH 392 0
DWIDTH 8 0
BBX 6 14 1 0
BITMAP
FC
30
30
30
30
30
30
30
30
30
30
30
30
FC
ENDCHAR
STARTCHAR J
ENCODING 74
SWIDTH 457 0
DWIDTH 9 0
BBX 8 14 0 0
BITMAP
1F
02
02
02
02
02
02
02
02
02
C2
C2
66
3C
ENDCHAR
STARTCHAR K
ENCODING 75
SWIDTH 560 0
DWIDTH 11 0
BBX 9 14 2 0
BITMAP
8100
8300
8600
8C00
9000
E000
C000
C000
E000
B000
8C00
8600
8300
8180
ENDCHAR
STARTCHAR L
ENCODING 76
SWIDTH 500 0
DWIDTH 10 0
BBX 8 14 2 0
BITMAP
80
80
80
80
80
80
80
80
80
80
80
80
80
FF
ENDCHAR
STARTCHAR M
ENCODING 77
SWIDTH 838 0
DWIDTH 17 0
BBX 15 14 1 0
BITMAP
1010
3010
3038
3838
2828
6868
6C48
44CC
4484
4684
C384
8306
8306
8302
ENDCHAR
STARTCHAR N
ENCODING 78
SWIDTH 658 0
DWIDTH 13 0
BBX 10 14 2 0
BITMAP
8080
C0C0
C0C0
E0C0
B0C0
90C0
98C0
8CC0
84C0
86C0
83C0
81C0
80C0
8080
ENDCHAR
STARTCHAR O
ENCODING 79
SWIDTH 643 0
DWIDTH 13 0
BBX 11 14 1 0
BITMAP
0F00
3180
60C0
4040
C060
C020
8020
8020
8060
C040
C040
4080
3180
1E00
ENDCHAR
STARTCHAR P
ENCODING 80
SWIDTH 560 0
DWIDTH 11 0
BBX 9 14 2 0
BITMAP
FC00
8600
8100
8180
8180
8180
8300
8E00
F800
8000
8000
8000
8000
8000
ENDCHAR
STARTCHAR Q
ENCODING 81
SWIDTH 708 0
DWIDTH 14 0
BBX 12 14 1 0
BITMAP
0F80
18C0
2060
4030
4010
C010
8010
8010
8010
C030
4320
61E0
31E0
1F30
ENDCHAR
STARTCHAR R
ENCODING 82
SWIDTH 596 0
DWIDTH 12 0
BBX 9 14 2 0
BITMAP
FC00
8700
8100
8180
8080
8180
8300
8E00
F800
8C00
8200
8100
8180
8080
ENDCHAR
STARTCHAR S
ENCODING 83
SWIDTH 552 0
DWIDTH 11 0
BBX 9 14 1 0
BITMAP
3F00
6180
C080
C000
C000
6000
3C00
0700
0180
0080
8080
8180
6300
3E00
ENDCHAR
STARTCHAR T
ENCODING 84
SWIDTH 522 0
DWIDTH 10 0
BBX 10 14 0 0
BITMAP
FFC0
0400
0400
0400
0400
0400
0400
0400
0400
0400
0400
0400
0400
0400
ENDCHAR
STARTCHAR U
ENCODING 85
SWIDTH 691 0
DWIDTH 14 0
BBX 11 14 1 0
BITMAP
C020
C020
C020
C020
C020
C020
C020
C020
4020
4020
4060
2040
30C0
1F00
ENDCHAR
STARTCHAR V
ENCODING 86
SWIDTH 536 0
DWIDTH 11 0
BBX 11 14 0 0
BITMAP
C060
C040
4040
60C0
6080
2180
2100
3100
1300
1200
1E00
0C00
0C00
0C00
ENDCHAR
STARTCHAR W
ENCODING 87
SWIDTH 867 0
DWIDTH 17 0
BBX 17 14 0 0
BITMAP
C08080
40C080
41C180
414100
614100
236300
232200
322600
122400
163400
141C00
1C1800
0C1800
081800
ENDCHAR
STARTCHAR X
ENCODING 88
SWIDTH 685 0
DWIDTH 14 0
BBX 12 14 1 0
BITMAP
C030
6020
2040
30C0
1980
0F00
0600
0600
0B00
1980
3080
6040
4060
8030
ENDCHAR
STARTCHAR Y
ENCODING 89
SWIDTH 594 0
DWIDTH 12 0
BBX 12 14 0 0
BITMAP
C030
4020
6060
2040
30C0
1080
1900
0B00
0600
0600
0400
0C00
0800
1000
ENDCHAR
STARTCHAR Z
ENCODING 90
SWIDTH 582 0
DWIDTH 12 0
BBX 11 14 0 0
BITMAP
7FE0
0060
00C0
0080
0100
0300
0600
0400
0800
1800
3000
6000
4000
FFE0
ENDCHAR
STARTCHAR bracketleft
ENCODING 91
SWIDTH 318 0
DWIDTH 6 0
BBX 4 18 1 -2
BITMAP
F0
C0
C0
C0
C0
C0
C0
C0
C0
C0
C0
C0
C0
C0
C0
C0
C0
F0
ENDCHAR
STARTCHAR backslash
ENCODING 92
SWIDTH 549 0
DWIDTH 11 0
BBX 9 14 1 0
BITMAP
C000
4000
6000
2000
3000
1000
1800
0800
0400
0600
0200
0300
0100
0180
ENDCHAR
STARTCHAR bracketright
ENCODING 93
SWIDTH 318 0
DWIDTH 6 0
BBX 4 18 1 -2
BITMAP
F0
10
10
10
10
10
10
10
10
10
10
10
10
10
10
10
10
F0
ENDCHAR
STARTCHAR asciicircum
ENCODING 94
SWIDTH 504 0
DWIDTH 10 0
BBX 6 6 2 8
BITMAP
10
30
38
48
CC
84
ENDCHAR
STARTCHAR underscore
ENCODING 95
SWIDTH 494 0
DWIDTH 10 0
BBX 11 1 -1 -1
BITMAP
FFE0
ENDCHAR
STARTCHAR grave
ENCODING 96
SWIDTH 181 0
DWIDTH 4 0
BBX 4 4 0 11
BITMAP
C0
C0
60
30
ENDCHAR
STARTCHAR a
ENCODING 97
SWIDTH 516 0
DWIDTH 10 0
BBX 8 10 1 0
BITMAP
1E
63
41
C1
81
83
83
C3
47
3D
ENDCHAR
STARTCHAR b
ENCODING 98
SWIDTH 535 0
DWIDTH 11 0
BBX 8 14 2 0
BITMAP
80
80
80
80
BC
E6
82
81
81
81
83
82
86
FC
ENDCHAR
STARTCHAR c
ENCODING 99
SWIDTH 482 0
DWIDTH 10 0
BBX 8 10 1 0
BITMAP
1C
23
40
C0
80
80
80
C1
63
3C
ENDCHAR
STARTCHAR d
ENCODING 100
SWIDTH 530 0
DWIDTH 11 0
BBX 8 14 1 0
BITMAP
01
01
01
01
3D
63
C1
81
81
81
81
C3
47
39
ENDCHAR
STARTCHAR e
ENCODING 101
SWIDTH 501 0
DWIDTH 10 0
BBX 8 10 1 0
BITMAP
3E
63
41
86
9C
B0
C0
C0
63
1E
ENDCHAR
STARTCHAR f
ENCODING 102
SWIDTH 279 0
DWIDTH 6 0
BBX 7 14 0 0
BITMAP
1E
30
20
20
FC
20
20
20
20
20
20
20
20
20
ENDCHAR
STARTCHAR g
ENCODING 103
SWIDTH 530 0
DWIDTH 11 0
BBX 8 14 1 -4
BITMAP
1F
63
41
81
81
81
83
C3
67
3D
03
03
06
7C
ENDCHAR
STARTCHAR h
ENCODING 104
SWIDTH 536 0
DWIDTH 11 0
BBX 7 14 2 0
BITMAP
80
80
80
80
9C
A6
C2
C2
82
82
82
82
82
82
ENDCHAR
STARTCHAR i
ENCODING 105
SWIDTH 227 0
DWIDTH 5 0
BBX 1 14 2 0
BITMAP
80
80
00
00
80
80
80
80
80
80
80
80
80
80
ENDCHAR
STARTCHAR j
ENCODING 106
SWIDTH 236 0
DWIDTH 5 0
BBX 5 18 -2 -4
BITMAP
08
08
00
00
08
08
08
08
08
08
08
08
08
08
08
88
D8
70
ENDCHAR
STARTCHAR k
ENCODING 107
SWIDTH 484 0
DWIDTH 10 0
BBX 8 14 2 0
BITMAP
80
80
80
80
82
84
88
90
B0
D0
88
84
86
83
ENDCHAR
STARTCHAR l
ENCODING 108
SWIDTH 219 0
DWIDTH 4 0
BBX 1 14 2 0
BITMAP
80
80
80
80
80
80
80
80
80
80
80
80
80
80
ENDCHAR
STARTCHAR m
ENCODING 109
SWIDTH 827 0
DWIDTH 17 0
BBX 13 10 2 0
BITMAP
9C70
A698
C308
8208
8208
8208
8208
8208
8208
8208
ENDCHAR
STARTCHAR n
ENCODING 110
SWIDTH 553 0
DWIDTH 11 0
BBX 8 10 2 0
BITMAP
9C
A2
C2
C3
83
83
83
83
83
83
ENDCHAR
STARTCHAR o
ENCODING 111
SWIDTH 529 0
DWIDTH 11 0
BBX 9 10 1 0
BITMAP
1C00
6300
4100
C180
8180
8180
8100
C300
6600
3C00
ENDCHAR
STARTCHAR p
ENCODING 112
SWIDTH 531 0
DWIDTH 11 0
BBX 8 14 2 -4
BITMAP
BC
E6
82
83
81
81
82
82
C6
FC
80
80
80
80
ENDCHAR
STARTCHAR q
ENCODING 113
SWIDTH 520 0
DWIDTH 10 0
BBX 8 15 1 -4
BITMAP
01
1F
61
41
81
81
81
81
C3
67
3F
03
03
03
02
ENDCHAR
STARTCHAR r
ENCODING 114
SWIDTH 397 0
DWIDTH 8 0
BBX 6 10 2 0
BITMAP
B8
E4
C4
80
80
80
80
80
80
80
ENDCHAR
STARTCHAR s
ENCODING 115
SWIDTH 416 0
DWIDTH 8 0
BBX 8 10 0 0
BITMAP
3E
62
43
60
38
06
03
C3
62
3C
ENDCHAR
STARTCHAR t
ENCODING 116
SWIDTH 286 0
DWIDTH 6 0
BBX 7 14 -1 0
BITMAP
10
10
10
10
FE
10
10
10
10
10
10
10
10
10
ENDCHAR
STARTCHAR u
ENCODING 117
SWIDTH 511 0
DWIDTH 10 0
BBX 8 10 1 0
BITMAP
41
C1
C1
C1
81
81
C1
C3
47
39
ENDCHAR
STARTCHAR v
ENCODING 118
SWIDTH 418 0
DWIDTH 8 0
BBX 8 10 0 0
BITMAP
81
C1
43
42
66
24
34
1C
18
18
ENDCHAR
STARTCHAR w
ENCODING 119
SWIDTH 598 0
DWIDTH 12 0
BBX 12 10 0 0
BITMAP
C610
C630
4620
4E20
4B60
6940
3140
31C0
3180
2080
ENDCHAR
STARTCHAR x
ENCODING 120
SWIDTH 473 0
DWIDTH 9 0
BBX 10 10 0 0
BITMAP
40C0
6180
2300
1600
0C00
1C00
3600
6300
C180
8080
ENDCHAR
STARTCHAR y
ENCODING 121
SWIDTH 447 0
DWIDTH 9 0
BBX 9 14 0 -4
BITMAP
8080
C180
4100
6300
2200
3600
1400
1C00
0800
0800
1800
1000
3000
2000
ENDCHAR
STARTCHAR z
ENCODING 122
SWIDTH 434 0
DWIDTH 9 0
BBX 8 10 0 0
BITMAP
FF
03
06
04
08
18
30
20
40
FF
ENDCHAR
STARTCHAR braceleft
ENCODING 123
SWIDTH 373 0
DWIDTH 7 0
BBX 6 19 1 -3
BITMAP
08
1C
20
20
20
20
20
20
60
C0
60
20
20
20
20
20
20
30
1C
ENDCHAR
STARTCHAR bar
ENCODING 124
SWIDTH 197 0
DWIDTH 4 0
BBX 2 21 1 -4
BITMAP
80
C0
C0
C0
C0
C0
C0
C0
C0
C0
C0
C0
C0
C0
C0
C0
C0
C0
C0
C0
C0
ENDCHAR
STARTCHAR braceright
ENCODING 125
SWIDTH 373 0
DWIDTH 7 0
BBX 5 19 1 -3
BITMAP
80
E0
20
30
30
30
30
30
10
18
18
30
30
30
30
30
30
60
C0
ENDCHAR
STARTCHAR asciitilde
ENCODING 126
SWIDTH 615 0
DWIDTH 12 0
BBX 10 4 1 3
BITMAP
3040
4840
84C0
8380
ENDCHAR
STARTCHAR uni00A0
ENCODING 160
SWIDTH 334 0
DWIDTH 7 0
BBX 1 1 0 0
BITMAP
00
ENDCHAR
STARTCHAR exclamdown
ENCODING 161
SWIDTH 245 0
DWIDTH 5 0
BBX 1 14 2 -4
BITMAP
80
80
00
80
80
80
80
80
80
80
80
80
80
80
ENDCHAR
STARTCHAR cent
ENCODING 162
SWIDTH 480 0
DWIDTH 10 0
BBX 8 14 1 0
BITMAP
08
18
1C
7A
58
98
90
90
90
D1
73
3C
10
10
ENDCHAR
STARTCHAR sterling
ENCODING 163
SWIDTH 661 0
DWIDTH 13 0
BBX 13 15 0 0
BITMAP
07C0
0860
1020
1030
3020
3000
1000
FF80
1000
1000
1800
1008
1E18
3310
21E0
ENDCHAR
STARTCHAR currency
ENCODING 164
SWIDTH 507 0
DWIDTH 10 0
BBX 8 9 1 1
BITMAP
81
C1
7E
66
42
42
66
7F
81
ENDCHAR
STARTCHAR yen
ENCODING 165
SWIDTH 494 0
DWIDTH 10 0
BBX 8 14 1 0
BITMAP
81
83
C2
46
64
2C
38
FE
10
10
FE
10
10
10
ENDCHAR
STARTCHAR brokenbar
ENCODING 166
SWIDTH 223 0
DWIDTH 4 0
BBX 1 18 2 -2
BITMAP
80
80
80
80
80
80
80
80
00
00
80
80
80
80
80
80
80
80
ENDCHAR
STARTCHAR section
ENCODING 167
SWIDTH 421 0
DWIDTH 8 0
BBX 8 13 0 0
BITMAP
3C
62
43
60
78
46
62
3B
06
02
C3
66
3C
ENDCHAR
STARTCHAR dieresis
ENCODING 168
SWIDTH 265 0
DWIDTH 5 0
BBX 5 2 0 12
BITMAP
D8
D8
ENDCHAR
STARTCHAR copyright
ENCODING 169
SWIDTH 547 0
DWIDTH 11 0
BBX 9 9 1 5
BITMAP
3E00
6300
DD80
A480
A080
A280
9D80
6300
3E00
ENDCHAR
STARTCHAR ordfeminine
ENCODING 170
SWIDTH 302 0
DWIDTH 6 0
BBX 5 6 0 7
BITMAP
38
48
C8
88
C8
78
ENDCHAR
STARTCHAR guillemotleft
ENCODING 171
SWIDTH 563 0
DWIDTH 11 0
BBX 9 7 1 1
BITMAP
0880
3180
6600
CC00
6600
3300
1880
ENDCHAR
STARTCHAR logicalnot
ENCODING 172
SWIDTH 478 0
DWIDTH 10 0
BBX 7 4 1 3
BITMAP
FE
02
02
02
ENDCHAR
STARTCHAR uni00AD
ENCODING 173
SWIDTH 402 0
DWIDTH 8 0
BBX 6 1 1 5
BITMAP
FC
ENDCHAR
STARTCHAR registered
ENCODING 174
SWIDTH 555 0
DWIDTH 11 0
BBX 9 9 1 4
BITMAP
3E00
6300
DD80
9280
9C80
BC80
C180
6300
3E00
ENDCHAR
STARTCHAR macron
ENCODING 175
SWIDTH 263 0
DWIDTH 5 0
BBX 5 1 0 12
BITMAP
F8
ENDCHAR
STARTCHAR degree
ENCODING 176
SWIDTH 247 0
DWIDTH 5 0
BBX 5 5 0 9
BITMAP
70
D8
88
88
70
ENDCHAR
STARTCHAR plusminus
ENCODING 177
SWIDTH 445 0
DWIDTH 9 0
BBX 7 9 1 0
BITMAP
10
10
FE
10
10
10
00
00
FC
ENDCHAR
STARTCHAR uni00B2
ENCODING 178
SWIDTH 249 0
DWIDTH 5 0
BBX 5 7 0 9
BITMAP
70
88
08
30
40
80
F8
ENDCHAR
STARTCHAR uni00B3
ENCODING 179
SWIDTH 245 0
DWIDTH 5 0
BBX 5 7 0 9
BITMAP
F0
08
10
30
08
88
70
ENDCHAR
STARTCHAR acute
ENCODING 180
SWIDTH 181 0
DWIDTH 4 0
BBX 4 4 0 11
BITMAP
30
60
40
80
ENDCHAR
STARTCHAR uni00B5
ENCODING 181
SWIDTH 504 0
DWIDTH 10 0
BBX 8 14 1 -4
BITMAP
41
C1
C1
C1
C1
C1
C1
C3
C7
79
40
40
40
40
ENDCHAR
STARTCHAR paragraph
ENCODING 182
SWIDTH 557 0
DWIDTH 11 0
BBX 9 18 1 -2
BITMAP
0200
1E80
3D80
7D80
FD80
FD80
FD80
7D80
7D80
0D00
0500
0500
0500
0D00
0900
0B00
0A00
0A00
ENDCHAR
STARTCHAR periodcentered
ENCODING 183
SWIDTH 176 0
DWIDTH 4 0
BBX 2 2 1 4
BITMAP
C0
80
ENDCHAR
STARTCHAR cedilla
ENCODING 184
SWIDTH 172 0
DWIDTH 3 0
BBX 3 5 0 -4
BITMAP
40
E0
20
A0
E0
ENDCHAR
STARTCHAR uni00B9
ENCODING 185
SWIDTH 176 0
DWIDTH 4 0
BBX 3 7 0 9
BITMAP
60
C0
40
40
40
40
E0
ENDCHAR
STARTCHAR ordmasculine
ENCODING 186
SWIDTH 281 0
DWIDTH 6 0
BBX 6 6 0 7
BITMAP
70
48
8C
8C
C8
70
ENDCHAR
STARTCHAR guillemotright
ENCODING 187
SWIDTH 559 0
DWIDTH 11 0
BBX 9 7 1 1
BITMAP
8C00
6600
3300
1980
3300
6600
C400
ENDCHAR
STARTCHAR onequarter
ENCODING 188
SWIDTH 685 0
DWIDTH 14 0
BBX 12 15 1 -1
BITMAP
0060
6040
E0C0
2080
2100
6100
6200
F200
0420
0C60
08A0
1920
13F0
2020
0020
ENDCHAR
STARTCHAR onehalf
ENCODING 189
SWIDTH 741 0
DWIDTH 15 0
BBX 13 15 1 -1
BITMAP
6040
E040
2080
2080
6100
6100
F200
0600
0470
0C98
0810
1030
1040
2080
00F8
ENDCHAR
STARTCHAR threequarters
ENCODING 190
SWIDTH 734 0
DWIDTH 15 0
BBX 13 15 1 -1
BITMAP
F020
0840
18C0
3080
0980
8900
7200
0200
0430
0430
0850
0890
11F8
3010
0010
ENDCHAR
STARTCHAR questiondown
ENCODING 191
SWIDTH 485 0
DWIDTH 10 0
BBX 8 14 1 -4
BITMAP
06
06
00
04
0C
18
30
60
40
80
C0
41
63
3E
ENDCHAR
STARTCHAR Agrave
ENCODING 192
SWIDTH 581 0
DWIDTH 12 0
BBX 10 19 1 0
BITMAP
1000
3800
1C00
0400
0000
0C00
0C00
0C00
1E00
1200
1200
2300
2100
7F00
F180
4080
C080
80C0
8040
ENDCHAR
STARTCHAR Aacute
ENCODING 193
SWIDTH 581 0
DWIDTH 12 0
BBX 10 19 1 0
BITMAP
0100
0300
0E00
0800
0000
0C00
0C00
0C00
1E00
1200
1200
2300
2100
7F00
F180
4080
C080
80C0
8040
ENDCHAR
STARTCHAR Acircumflex
ENCODING 194
SWIDTH 581 0
DWIDTH 12 0
BBX 10 18 1 0
BITMAP
0400
0C00
1A00
2100
0C00
0C00
0C00
1E00
1200
1200
2300
2100
7F00
F180
4080
C080
80C0
8040
ENDCHAR
STARTCHAR Atilde
ENCODING 195
SWIDTH 581 0
DWIDTH 12 0
BBX 10 18 1 0
BITMAP
3980
2D00
6700
0000
0C00
0C00
0C00
1E00
1200
1200
2300
2100
7F00
F180
4080
C080
80C0
8040
ENDCHAR
STARTCHAR Adieresis
ENCODING 196
SWIDTH 581 0
DWIDTH 12 0
BBX 10 17 1 0
BITMAP
1200
3F00
0000
0C00
0C00
0C00
1E00
1200
1200
2300
2100
7F00
F180
4080
C080
80C0
8040
ENDCHAR
STARTCHAR Aring
ENCODING 197
SWIDTH 581 0
DWIDTH 12 0
BBX 10 18 1 0
BITMAP
0E00
1200
1200
1E00
0C00
0C00
0C00
1E00
1200
1200
2300
2100
7F00
F180
4080
C080
80C0
8040
ENDCHAR
STARTCHAR AE
ENCODING 198
SWIDTH 1044 0
DWIDTH 21 0
BBX 19 14 1 0
BITMAP
007FE0
00C000
01C000
014000
034000
024000
044000
0DFFC0
3F4000
304000
304000
604000
404000
807FE0
ENDCHAR
STARTCHAR Ccedilla
ENCODING 199
SWIDTH 614 0
DWIDTH 12 0
BBX 11 18 1 -4
BITMAP
0FC0
18C0
2040
6000
4000
C000
8000
8000
8000
8000
4000
6060
30C0
0F00
0600
0100
0500
0700
ENDCHAR
STARTCHAR Egrave
ENCODING 200
SWIDTH 603 0
DWIDTH 12 0
BBX 9 19 2 0
BITMAP
2000
3000
1800
0C00
0000
FF80
8000
8000
8000
8000
8000
FF00
8000
8000
8000
8000
8000
8000
FF80
ENDCHAR
STARTCHAR Eacute
ENCODING 201
SWIDTH 603 0
DWIDTH 12 0
BBX 9 19 2 0
BITMAP
0200
0600
0C00
1800
0000
FF80
8000
8000
8000
8000
8000
FF00
8000
8000
8000
8000
8000
8000
FF80
ENDCHAR
STARTCHAR Ecircumflex
ENCODING 202
SWIDTH 603 0
DWIDTH 12 0
BBX 9 18 2 0
BITMAP
0800
1C00
3600
2300
FF80
8000
8000
8000
8000
8000
FF00
8000
8000
8000
8000
8000
8000
FF80
ENDCHAR
STARTCHAR Edieresis
ENCODING 203
SWIDTH 603 0
DWIDTH 12 0
BBX 9 17 2 0
BITMAP
3600
3600
0000
FF80
8000
8000
8000
8000
8000
FF00
8000
8000
8000
8000
8000
8000
FF80
ENDCHAR
STARTCHAR Igrave
ENCODING 204
SWIDTH 392 0
DWIDTH 8 0
BBX 6 19 1 0
BITMAP
40
C0
70
10
00
FC
30
30
30
30
30
30
30
30
30
30
30
30
FC
ENDCHAR
STARTCHAR Iacute
ENCODING 205
SWIDTH 392 0
DWIDTH 8 0
BBX 6 19 1 0
BITMAP
08
0C
38
20
00
FC
30
30
30
30
30
30
30
30
30
30
30
30
FC
ENDCHAR
STARTCHAR Icircumflex
ENCODING 206
SWIDTH 392 0
DWIDTH 8 0
BBX 6 18 1 0
BITMAP
10
30
78
84
FC
30
30
30
30
30
30
30
30
30
30
30
30
FC
ENDCHAR
STARTCHAR Idieresis
ENCODING 207
SWIDTH 392 0
DWIDTH 8 0
BBX 6 17 1 0
BITMAP
48
DC
00
FC
30
30
30
30
30
30
30
30
30
30
30
30
FC
ENDCHAR
STARTCHAR Eth
ENCODING 208
SWIDTH 634 0
DWIDTH 13 0
BBX 12 14 0 0
BITMAP
3C00
2380
20C0
2060
2020
2030
2030
FC30
2030
2030
2020
2060
21C0
3F00
ENDCHAR
STARTCHAR Ntilde
ENCODING 209
SWIDTH 658 0
DWIDTH 13 0
BBX 10 18 2 0
BITMAP
3100
6900
4600
0000
8080
C0C0
C0C0
E0C0
B0C0
90C0
98C0
8CC0
84C0
86C0
83C0
81C0
80C0
8080
ENDCHAR
STARTCHAR Ograve
ENCODING 210
SWIDTH 643 0
DWIDTH 13 0
BBX 11 19 1 0
BITMAP
1000
1800
0C00
0600
0000
0F00
3180
60C0
4040
C060
C020
8020
8020
8060
C040
C040
4080
3180
1E00
ENDCHAR
STARTCHAR Oacute
ENCODING 211
SWIDTH 643 0
DWIDTH 13 0
BBX 11 19 1 0
BITMAP
0100
0300
0600
0C00
0000
0F00
3180
60C0
4040
C060
C020
8020
8020
8060
C040
C040
4080
3180
1E00
ENDCHAR
STARTCHAR Ocircumflex
ENCODING 212
SWIDTH 643 0
DWIDTH 13 0
BBX 11 18 1 0
BITMAP
0400
0E00
1B00
3180
0F00
3180
60C0
4040
C060
C020
8020
8020
8060
C040
C040
4080
3180
1E00
ENDCHAR
STARTCHAR Otilde
ENCODING 213
SWIDTH 643 0
DWIDTH 13 0
BBX 11 18 1 0
BITMAP
1880
2580
2700
0000
0F00
3180
60C0
4040
C060
C020
8020
8020
8060
C040
C040
4080
3180
1E00
ENDCHAR
STARTCHAR Odieresis
ENCODING 214
SWIDTH 643 0
DWIDTH 13 0
BBX 11 17 1 0
BITMAP
1B00
1B00
0000
0F00
3180
60C0
4040
C060
C020
8020
8020
8060
C040
C040
4080
3180
1E00
ENDCHAR
STARTCHAR multiply
ENCODING 215
SWIDTH 376 0
DWIDTH 8 0
BBX 5 5 1 2
BITMAP
C8
78
30
78
C8
ENDCHAR
STARTCHAR Oslash
ENCODING 216
SWIDTH 635 0
DWIDTH 13 0
BBX 11 15 1 0
BITMAP
00C0
0F80
3180
61C0
4240
C260
8460
8C20
8820
9860
9040
F0C0
6080
7300
DE00
ENDCHAR
STARTCHAR Ugrave
ENCODING 217
SWIDTH 691 0
DWIDTH 14 0
BBX 11 19 1 0
BITMAP
0800
1800
0E00
0200
0000
C020
C020
C020
C020
C020
C020
C020
C020
4020
4020
4060
2040
30C0
1F00
ENDCHAR
STARTCHAR Uacute
ENCODING 218
SWIDTH 691 0
DWIDTH 14 0
BBX 11 19 1 0
BITMAP
0100
0180
0700
0400
0000
C020
C020
C020
C020
C020
C020
C020
C020
4020
4020
4060
2040
30C0
1F00
ENDCHAR
STARTCHAR Ucircumflex
ENCODING 219
SWIDTH 691 0
DWIDTH 14 0
BBX 11 18 1 0
BITMAP
0200
0600
0F00
1080
C020
C020
C020
C020
C020
C020
C020
C020
4020
4020
4060
2040
30C0
1F00
ENDCHAR
STARTCHAR Udieresis
ENCODING 220
SWIDTH 691 0
DWIDTH 14 0
BBX 11 17 1 0
BITMAP
0900
1B80
0000
C020
C020
C020
C020
C020
C020
C020
C020
4020
4020
4060
2040
30C0
1F00
ENDCHAR
STARTCHAR Yacute
ENCODING 221
SWIDTH 594 0
DWIDTH 12 0
BBX 12 19 0 0
BITMAP
0100
0180
0700
0400
0000
C030
4020
6060
2040
30C0
1080
1900
0B00
0600
0600
0400
0C00
0800
1000
ENDCHAR
STARTCHAR Thorn
ENCODING 222
SWIDTH 542 0
DWIDTH 11 0
BBX 9 14 1 0
BITMAP
C000
C000
F800
C700
C100
C180
C180
C100
C300
C600
F800
C000
C000
8000
ENDCHAR
STARTCHAR germandbls
ENCODING 223
SWIDTH 526 0
DWIDTH 11 0
BBX 9 13 1 0
BITMAP
3C00
6600
4200
C200
C600
DE00
C300
C100
C180
C180
C100
C300
DE00
ENDCHAR
STARTCHAR agrave
ENCODING 224
SWIDTH 516 0
DWIDTH 10 0
BBX 8 15 1 0
BITMAP
30
18
08
04
00
1E
63
41
C1
81
83
83
C3
47
3D
ENDCHAR
STARTCHAR aacute
ENCODING 225
SWIDTH 516 0
DWIDTH 10 0
BBX 8 15 1 0
BITMAP
02
06
0C
08
00
1E
63
41
C1
81
83
83
C3
47
3D
ENDCHAR
STARTCHAR acircumflex
ENCODING 226
SWIDTH 516 0
DWIDTH 10 0
BBX 8 15 1 0
BITMAP
08
1C
36
23
00
1E
63
41
C1
81
83
83
C3
47
3D
ENDCHAR
STARTCHAR atilde
ENCODING 227
SWIDTH 516 0
DWIDTH 10 0
BBX 8 15 1 0
BITMAP
39
69
47
00
00
1E
63
41
C1
81
83
83
C3
47
3D
ENDCHAR
STARTCHAR adieresis
ENCODING 228
SWIDTH 516 0
DWIDTH 10 0
BBX 8 14 1 0
BITMAP
32
36
00
00
1E
63
41
C1
81
83
83
C3
47
3D
ENDCHAR
STARTCHAR aring
ENCODING 229
SWIDTH 516 0
DWIDTH 10 0
BBX 8 15 1 0
BITMAP
1C
12
32
1C
00
1E
63
41
C1
81
83
83
C3
47
3D
ENDCHAR
STARTCHAR ae
ENCODING 230
SWIDTH 822 0
DWIDTH 16 0
BBX 15 10 1 0
BITMAP
1E78
628C
4304
C31C
8270
82C0
8380
C300
478E
3B78
ENDCHAR
STARTCHAR ccedilla
ENCODING 231
SWIDTH 482 0
DWIDTH 10 0
BBX 8 14 1 -4
BITMAP
1C
23
40
C0
80
80
80
C1
63
3C
1C
04
14
1C
ENDCHAR
STARTCHAR egrave
ENCODING 232
SWIDTH 501 0
DWIDTH 10 0
BBX 8 15 1 0
BITMAP
20
30
18
0C
00
3E
63
41
86
9C
B0
C0
C0
63
1E
ENDCHAR
STARTCHAR eacute
ENCODING 233
SWIDTH 501 0
DWIDTH 10 0
BBX 8 15 1 0
BITMAP
06
0C
08
10
00
3E
63
41
86
9C
B0
C0
C0
63
1E
ENDCHAR
STARTCHAR ecircumflex
ENCODING 234
SWIDTH 501 0
DWIDTH 10 0
BBX 8 15 1 0
BITMAP
08
1C
36
62
00
3E
63
41
86
9C
B0
C0
C0
63
1E
ENDCHAR
STARTCHAR edieresis
ENCODING 235
SWIDTH 501 0
DWIDTH 10 0
BBX 8 14 1 0
BITMAP
36
36
00
00
3E
63
41
86
9C
B0
C0
C0
63
1E
ENDCHAR
STARTCHAR igrave
ENCODING 236
SWIDTH 228 0
DWIDTH 5 0
BBX 3 15 0 0
BITMAP
80
C0
60
20
00
20
20
20
20
20
20
20
20
20
20
ENDCHAR
STARTCHAR iacute
ENCODING 237
SWIDTH 228 0
DWIDTH 5 0
BBX 4 15 1 0
BITMAP
30
60
40
80
00
40
40
40
40
40
40
40
40
40
40
ENDCHAR
STARTCHAR icircumflex
ENCODING 238
SWIDTH 228 0
DWIDTH 5 0
BBX 6 15 -1 0
BITMAP
10
38
6C
C4
00
10
10
10
10
10
10
10
10
10
10
ENDCHAR
STARTCHAR idieresis
ENCODING 239
SWIDTH 228 0
DWIDTH 5 0
BBX 5 14 0 0
BITMAP
D8
D8
00
00
20
20
20
20
20
20
20
20
20
20
ENDCHAR
STARTCHAR eth
ENCODING 240
SWIDTH 470 0
DWIDTH 9 0
BBX 7 14 1 0
BITMAP
26
38
38
4C
04
1E
72
C2
82
82
82
82
CC
78
ENDCHAR
STARTCHAR ntilde
ENCODING 241
SWIDTH 553 0
DWIDTH 11 0
BBX 8 15 2 0
BITMAP
62
96
9C
00
00
9C
A2
C2
C3
83
83
83
83
83
83
ENDCHAR
STARTCHAR ograve
ENCODING 242
SWIDTH 529 0
DWIDTH 11 0
BBX 9 15 1 0
BITMAP
2000
3000
1800
0C00
0000
1C00
6300
4100
C180
8180
8180
8100
C300
6600
3C00
ENDCHAR
STARTCHAR oacute
ENCODING 243
SWIDTH 529 0
DWIDTH 11 0
BBX 9 15 1 0
BITMAP
0600
0C00
0800
1000
0000
1C00
6300
4100
C180
8180
8180
8100
C300
6600
3C00
ENDCHAR
STARTCHAR ocircumflex
ENCODING 244
SWIDTH 529 0
DWIDTH 11 0
BBX 9 15 1 0
BITMAP
0800
1C00
3600
6200
0000
1C00
6300
4100
C180
8180
8180
8100
C300
6600
3C00
ENDCHAR
STARTCHAR otilde
ENCODING 245
SWIDTH 529 0
DWIDTH 11 0
BBX 9 15 1 0
BITMAP
3100
5B00
4E00
0000
0000
1C00
6300
4100
C180
8180
8180
8100
C300
6600
3C00
ENDCHAR
STARTCHAR odieresis
ENCODING 246
SWIDTH 529 0
DWIDTH 11 0
BBX 9 14 1 0
BITMAP
3600
3600
0000
0000
1C00
6300
4100
C180
8180
8180
8100
C300
6600
3C00
ENDCHAR
STARTCHAR divide
ENCODING 247
SWIDTH 432 0
DWIDTH 9 0
BBX 6 5 1 2
BITMAP
10
00
FC
00
30
ENDCHAR
STARTCHAR oslash
ENCODING 248
SWIDTH 529 0
DWIDTH 11 0
BBX 9 11 1 0
BITMAP
0100
1E00
6300
4500
CD80
8980
9980
9100
E300
6600
7C00
ENDCHAR
STARTCHAR ugrave
ENCODING 249
SWIDTH 511 0
DWIDTH 10 0
BBX 8 15 1 0
BITMAP
20
30
18
08
00
41
C1
C1
C1
81
81
C1
C3
47
39
ENDCHAR
STARTCHAR uacute
ENCODING 250
SWIDTH 511 0
DWIDTH 10 0
BBX 8 15 1 0
BITMAP
06
0C
18
10
00
41
C1
C1
C1
81
81
C1
C3
47
39
ENDCHAR
STARTCHAR ucircumflex
ENCODING 251
SWIDTH 511 0
DWIDTH 10 0
BBX 8 15 1 0
BITMAP
08
18
34
62
00
41
C1
C1
C1
81
81
C1
C3
47
39
ENDCHAR
STARTCHAR udieresis
ENCODING 252
SWIDTH 511 0
DWIDTH 10 0
BBX 8 14 1 0
BITMAP
26
76
00
00
41
C1
C1
C1
81
81
C1
C3
47
39
ENDCHAR
STARTCHAR yacute
ENCODING 253
SWIDTH 447 0
DWIDTH 9 0
BBX 9 19 0 -4
BITMAP
0600
0600
0C00
1800
0000
8080
C180
4100
6300
2200
3600
1400
1C00
0800
0800
1800
1000
3000
2000
ENDCHAR
STARTCHAR thorn
ENCODING 254
SWIDTH 531 0
DWIDTH 11 0
BBX 8 18 2 -4
BITMAP
80
80
80
80
BC
E6
82
83
81
81
82
82
C6
FC
80
80
80
80
ENDCHAR
STARTCHAR ydieresis
ENCODING 255
SWIDTH 447 0
DWIDTH 9 0
BBX 9 18 0 -4
BITMAP
3600
3600
0000
0000
8080
C180
4100
6300
2200
3600
1400
1C00
0800
0800
1800
1000
3000
2000
ENDCHAR
STARTCHAR amacron
ENCODING 257
SWIDTH 516 0
DWIDTH 10 0
BBX 8 13 1 0
BITMAP
3E
00
00
1E
63
41
C1
81
83
83
C3
47
3D
ENDCHAR
STARTCHAR Abreve
ENCODING 258
SWIDTH 581 0
DWIDTH 12 0
BBX 10 18 1 0
BITMAP
2100
3100
1E00
0000
0C00
0C00
0C00
1E00
1200
1200
2300
2100
7F00
F180
4080
C080
80C0
8040
ENDCHAR
STARTCHAR abreve
ENCODING 259
SWIDTH 516 0
DWIDTH 10 0
BBX 8 15 1 0
BITMAP
21
23
1E
00
00
1E
63
41
C1
81
83
83
C3
47
3D
ENDCHAR
STARTCHAR Aogonek
ENCODING 260
SWIDTH 581 0
DWIDTH 12 0
BBX 11 18 1 -4
BITMAP
0C00
0C00
0C00
1E00
1200
1200
2300
2100
7F00
F180
4080
C080
80C0
8040
0080
0100
01A0
00E0
ENDCHAR
STARTCHAR aogonek
ENCODING 261
SWIDTH 506 0
DWIDTH 10 0
BBX 9 14 1 -4
BITMAP
1E00
2300
4100
C100
8100
8100
8100
C100
4700
3D00
0200
0400
0480
0380
ENDCHAR
STARTCHAR Cacute
ENCODING 262
SWIDTH 614 0
DWIDTH 12 0
BBX 11 19 1 0
BITMAP
0100
0380
0700
0400
0000
0FC0
18C0
2040
6000
4000
C000
8000
8000
8000
8000
C000
6060
30C0
1F00
ENDCHAR
STARTCHAR cacute
ENCODING 263
SWIDTH 482 0
DWIDTH 10 0
BBX 8 15 1 0
BITMAP
06
0C
08
18
00
1C
23
40
C0
80
80
80
C1
63
3C
ENDCHAR
STARTCHAR Ccircumflex
ENCODING 264
SWIDTH 614 0
DWIDTH 12 0
BBX 11 18 1 0
BITMAP
0400
0600
0B00
1080
0FC0
18C0
2040
6000
4000
C000
8000
8000
8000
8000
C000
6060
30C0
1F00
ENDCHAR
STARTCHAR ccircumflex
ENCODING 265
SWIDTH 482 0
DWIDTH 10 0
BBX 8 15 1 0
BITMAP
08
1C
36
62
00
1C
23
40
C0
80
80
80
C1
63
3C
ENDCHAR
STARTCHAR Ccaron
ENCODING 268
SWIDTH 614 0
DWIDTH 12 0
BBX 11 18 1 0
BITMAP
1080
1980
0F00
0600
0FC0
18C0
2040
6000
4000
C000
8000
8000
8000
8000
C000
6060
30C0
1F00
ENDCHAR
STARTCHAR ccaron
ENCODING 269
SWIDTH 482 0
DWIDTH 10 0
BBX 8 15 1 0
BITMAP
42
66
3C
18
00
1C
23
40
C0
80
80
80
C1
63
3C
ENDCHAR
STARTCHAR Dcaron
ENCODING 270
SWIDTH 629 0
DWIDTH 13 0
BBX 10 18 2 0
BITMAP
2200
6600
1C00
0800
F000
8C00
8300
8100
8080
8080
80C0
80C0
80C0
8080
8080
8180
8700
FC00
ENDCHAR
STARTCHAR dcaron
ENCODING 271
SWIDTH 554 0
DWIDTH 11 0
BBX 11 14 1 0
BITMAP
0160
0160
0140
0100
3D00
6300
C100
8100
8100
8100
8100
C300
4700
3900
ENDCHAR
STARTCHAR Dcroat
ENCODING 272
SWIDTH 659 0
DWIDTH 13 0
BBX 11 14 1 0
BITMAP
3C00
6700
6080
6040
6060
6020
6020
F820
6020
6020
6060
6040
6180
3E00
ENDCHAR
STARTCHAR dcroat
ENCODING 273
SWIDTH 547 0
DWIDTH 11 0
BBX 10 14 1 0
BITMAP
0100
0100
07C0
0100
3F00
6300
C100
8100
8100
8100
8100
C300
4700
3900
ENDCHAR
STARTCHAR Eogonek
ENCODING 280
SWIDTH 603 0
DWIDTH 12 0
BBX 10 18 2 -4
BITMAP
FF80
8000
8000
8000
8000
8000
FF00
8000
8000
8000
8000
8000
8000
FF80
0200
0200
0240
0380
ENDCHAR
STARTCHAR eogonek
ENCODING 281
SWIDTH 517 0
DWIDTH 10 0
BBX 8 14 1 -4
BITMAP
3E
63
41
86
9C
F0
C0
40
63
1E
08
10
12
0E
ENDCHAR
STARTCHAR Ecaron
ENCODING 282
SWIDTH 603 0
DWIDTH 12 0
BBX 9 18 2 0
BITMAP
2100
3300
1C00
0800
FF80
8000
8000
8000
8000
8000
FF00
8000
8000
8000
8000
8000
8000
FF80
ENDCHAR
STARTCHAR ecaron
ENCODING 283
SWIDTH 501 0
DWIDTH 10 0
BBX 8 15 1 0
BITMAP
42
66
3C
18
00
3E
63
41
86
9C
B0
C0
C0
63
1E
ENDCHAR
STARTCHAR Gcircumflex
ENCODING 284
SWIDTH 716 0
DWIDTH 14 0
BBX 13 18 1 0
BITMAP
0200
0700
0D80
1880
0F80
38C0
2060
4030
C000
C000
8000
8000
81F8
C130
4020
6060
30C0
0F00
ENDCHAR
STARTCHAR gcircumflex
ENCODING 285
SWIDTH 530 0
DWIDTH 11 0
BBX 8 19 1 -4
BITMAP
08
1C
36
62
00
1F
63
41
81
81
81
83
C3
67
3D
03
03
06
7C
ENDCHAR
STARTCHAR Hcircumflex
ENCODING 292
SWIDTH 723 0
DWIDTH 14 0
BBX 11 18 2 0
BITMAP
0400
0E00
1B00
3100
8020
8020
8020
8020
8020
8020
8FE0
FC20
8020
8020
8020
8020
8020
8020
ENDCHAR
STARTCHAR hcircumflex
ENCODING 293
SWIDTH 536 0
DWIDTH 11 0
BBX 10 18 -1 0
BITMAP
1000
3800
6C00
C400
1000
1000
1000
1000
1380
14C0
1840
1840
1040
1040
1040
1040
1040
1040
ENDCHAR
STARTCHAR dotlessi
ENCODING 305
SWIDTH 228 0
DWIDTH 5 0
BBX 1 10 2 0
BITMAP
80
80
80
80
80
80
80
80
80
80
ENDCHAR
STARTCHAR Jcircumflex
ENCODING 308
SWIDTH 457 0
DWIDTH 9 0
BBX 9 18 0 0
BITMAP
0400
0E00
1B00
1180
1F00
0200
0200
0200
0200
0200
0200
0200
0200
0200
C200
C200
6600
3C00
ENDCHAR
STARTCHAR jcircumflex
ENCODING 309
SWIDTH 236 0
DWIDTH 5 0
BBX 7 19 -2 -4
BITMAP
08
1C
36
62
00
08
08
08
08
08
08
08
08
08
08
08
88
D8
70
ENDCHAR
STARTCHAR Lacute
ENCODING 313
SWIDTH 500 0
DWIDTH 10 0
BBX 9 19 1 0
BITMAP
1000
3000
6000
C000
0000
4000
4000
4000
4000
4000
4000
4000
4000
4000
4000
4000
4000
4000
7F80
ENDCHAR
STARTCHAR lacute
ENCODING 314
SWIDTH 219 0
DWIDTH 4 0
BBX 4 19 1 0
BITMAP
10
30
60
80
00
40
40
40
40
40
40
40
40
40
40
40
40
40
40
ENDCHAR
STARTCHAR Lcaron
ENCODING 317
SWIDTH 500 0
DWIDTH 10 0
BBX 8 14 2 0
BITMAP
86
86
84
80
80
80
80
80
80
80
80
80
80
FF
ENDCHAR
STARTCHAR lcaron
ENCODING 318
SWIDTH 240 0
DWIDTH 5 0
BBX 4 14 2 0
BITMAP
B0
A0
A0
80
80
80
80
80
80
80
80
80
80
80
ENDCHAR
STARTCHAR Lslash
ENCODING 321
SWIDTH 501 0
DWIDTH 10 0
BBX 10 14 0 0
BITMAP
2000
2000
2000
2000
2000
2C00
3800
6000
E000
2000
2000
2000
2000
3FC0
ENDCHAR
STARTCHAR lslash
ENCODING 322
SWIDTH 271 0
DWIDTH 5 0
BBX 5 14 0 0
BITMAP
20
20
20
20
20
28
38
60
E0
20
20
20
20
20
ENDCHAR
STARTCHAR Nacute
ENCODING 323
SWIDTH 658 0
DWIDTH 13 0
BBX 10 19 2 0
BITMAP
0200
0600
0C00
1800
0000
8080
C0C0
C0C0
E0C0
B0C0
90C0
98C0
8CC0
84C0
86C0
83C0
81C0
80C0
8080
ENDCHAR
STARTCHAR nacute
ENCODING 324
SWIDTH 553 0
DWIDTH 11 0
BBX 8 15 2 0
BITMAP
0C
0C
18
30
00
9C
A2
C2
C3
83
83
83
83
83
83
ENDCHAR
STARTCHAR Ncaron
ENCODING 327
SWIDTH 658 0
DWIDTH 13 0
BBX 10 18 2 0
BITMAP
2100
3300
1E00
0800
8080
C0C0
C0C0
E0C0
B0C0
90C0
98C0
8CC0
84C0
86C0
83C0
81C0
80C0
8080
ENDCHAR
STARTCHAR ncaron
ENCODING 328
SWIDTH 553 0
DWIDTH 11 0
BBX 8 15 2 0
BITMAP
44
CE
38
10
00
9C
A2
C2
C3
83
83
83
83
83
83
ENDCHAR
STARTCHAR Ohungarumlaut
ENCODING 336
SWIDTH 643 0
DWIDTH 13 0
BBX 11 19 1 0
BITMAP
0240
06C0
0D80
1B00
0000
0F00
3180
60C0
4040
C060
C020
8020
8020
8060
C040
C040
4080
3180
1E00
ENDCHAR
STARTCHAR ohungarumlaut
ENCODING 337
SWIDTH 529 0
DWIDTH 11 0
BBX 9 15 1 0
BITMAP
0980
1B00
3600
2400
0000
1C00
6300
4100
C180
8180
8180
8100
C300
6600
3C00
ENDCHAR
STARTCHAR OE
ENCODING 338
SWIDTH 1054 0
DWIDTH 21 0
BBX 19 14 1 0
BITMAP
0F3FE0
31A000
60E000
406000
C06000
806000
803FC0
806000
806000
806000
C0E000
40A000
332000
1E3FE0
ENDCHAR
STARTCHAR oe
ENCODING 339
SWIDTH 858 0
DWIDTH 17 0
BBX 15 10 1 0
BITMAP
1C3C
6246
4182
C186
8118
8160
81C0
C380
66C6
3C3C
ENDCHAR
STARTCHAR Racute
ENCODING 340
SWIDTH 596 0
DWIDTH 12 0
BBX 9 19 2 0
BITMAP
0400
0600
1C00
1000
0000
FC00
8700
8100
8180
8080
8180
8300
8E00
F800
8C00
8200
8100
8180
8080
ENDCHAR
STARTCHAR racute
ENCODING 341
SWIDTH 397 0
DWIDTH 8 0
BBX 6 15 2 0
BITMAP
10
30
60
40
00
B8
E4
C4
80
80
80
80
80
80
80
ENDCHAR
STARTCHAR Rcaron
ENCODING 344
SWIDTH 596 0
DWIDTH 12 0
BBX 9 18 2 0
BITMAP
4200
6600
3C00
1800
FC00
8700
8100
8180
8080
8180
8300
8E00
F800
8C00
8200
8100
8180
8080
ENDCHAR
STARTCHAR rcaron
ENCODING 345
SWIDTH 397 0
DWIDTH 8 0
BBX 7 15 1 0
BITMAP
84
CC
78
30
00
5C
72
62
40
40
40
40
40
40
40
ENDCHAR
STARTCHAR Sacute
ENCODING 346
SWIDTH 552 0
DWIDTH 11 0
BBX 9 19 1 0
BITMAP
0200
0700
0C00
0800
0000
3F00
6180
C080
C000
C000
6000
3C00
0700
0180
0080
8080
8180
6300
3E00
ENDCHAR
STARTCHAR sacute
ENCODING 347
SWIDTH 416 0
DWIDTH 8 0
BBX 8 15 0 0
BITMAP
06
0C
18
10
00
3E
62
43
60
38
06
03
C3
62
3C
ENDCHAR
STARTCHAR Scircumflex
ENCODING 348
SWIDTH 552 0
DWIDTH 11 0
BBX 9 18 1 0
BITMAP
0800
0C00
1600
2300
3F00
6180
C080
C000
C000
6000
3C00
0700
0180
0080
8080
8180
6300
3E00
ENDCHAR
STARTCHAR scircumflex
ENCODING 349
SWIDTH 416 0
DWIDTH 8 0
BBX 8 15 0 0
BITMAP
08
18
36
62
00
3E
62
43
60
38
06
03
C3
62
3C
ENDCHAR
STARTCHAR Scedilla
ENCODING 350
SWIDTH 552 0
DWIDTH 11 0
BBX 9 18 1 -4
BITMAP
3F00
6180
C080
C000
C000
7000
3E00
0700
0180
0080
8080
8180
E300
3C00
0C00
0200
1200
0C00
ENDCHAR
STARTCHAR scedilla
ENCODING 351
SWIDTH 416 0
DWIDTH 8 0
BBX 8 14 0 -4
BITMAP
3E
62
43
60
3C
06
03
C2
66
18
1C
02
16
1C
ENDCHAR
STARTCHAR Scaron
ENCODING 352
SWIDTH 552 0
DWIDTH 11 0
BBX 9 18 1 0
BITMAP
2100
3300
1E00
0C00
3F00
6180
C080
C000
C000
6000
3C00
0700
0180
0080
8080
8180
6300
3E00
ENDCHAR
STARTCHAR scaron
ENCODING 353
SWIDTH 416 0
DWIDTH 8 0
BBX 8 15 0 0
BITMAP
42
66
3C
18
00
3E
62
43
60
38
06
03
C3
62
3C
ENDCHAR
STARTCHAR uni021A
ENCODING 355
SWIDTH 522 0
DWIDTH 10 0
BBX 10 18 0 -4
BITMAP
FFC0
0400
0400
0400
0400
0400
0400
0400
0400
0400
0400
0400
0400
0400
0400
0C00
0C00
0800
ENDCHAR
STARTCHAR Tcaron
ENCODING 356
SWIDTH 522 0
DWIDTH 10 0
BBX 10 18 0 0
BITMAP
2100
1300
1E00
0C00
FFC0
0400
0400
0400
0400
0400
0400
0400
0400
0400
0400
0400
0400
0400
ENDCHAR
STARTCHAR tcaron
ENCODING 357
SWIDTH 303 0
DWIDTH 6 0
BBX 8 16 -1 0
BITMAP
03
02
12
10
10
10
FE
10
10
10
10
10
10
10
10
10
ENDCHAR
STARTCHAR Ubreve
ENCODING 364
SWIDTH 691 0
DWIDTH 14 0
BBX 11 18 1 0
BITMAP
1080
1180
0F00
0000
C020
C020
C020
C020
C020
C020
C020
C020
4020
4020
4060
2040
30C0
1F00
ENDCHAR
STARTCHAR ubreve
ENCODING 365
SWIDTH 511 0
DWIDTH 10 0
BBX 8 15 1 0
BITMAP
42
62
3C
00
00
41
C1
C1
C1
81
81
C1
C3
47
39
ENDCHAR
STARTCHAR Uring
ENCODING 366
SWIDTH 691 0
DWIDTH 14 0
BBX 11 18 1 0
BITMAP
0700
0900
0900
0F00
C020
C020
C020
C020
C020
C020
C020
C020
4020
4020
4060
2040
30C0
1F00
ENDCHAR
STARTCHAR uring
ENCODING 367
SWIDTH 511 0
DWIDTH 10 0
BBX 8 15 1 0
BITMAP
1C
24
26
3C
00
41
C1
C1
C1
81
81
C1
C3
47
39
ENDCHAR
STARTCHAR Uhungarumlaut
ENCODING 368
SWIDTH 691 0
DWIDTH 14 0
BBX 11 19 1 0
BITMAP
0240
0660
0DC0
0900
0000
C020
C020
C020
C020
C020
C020
C020
C020
4020
4020
4060
2040
30C0
1F00
ENDCHAR
STARTCHAR uhungarumlaut
ENCODING 369
SWIDTH 511 0
DWIDTH 10 0
BBX 8 15 1 0
BITMAP
09
1B
36
24
00
41
C1
C1
C1
81
81
C1
C3
47
39
ENDCHAR
STARTCHAR Ydieresis
ENCODING 376
SWIDTH 594 0
DWIDTH 12 0
BBX 12 17 0 0
BITMAP
0900
1B80
0000
C030
4020
6060
2040
30C0
1080
1900
0B00
0600
0600
0400
0C00
0800
1000
ENDCHAR
STARTCHAR Zacute
ENCODING 377
SWIDTH 582 0
DWIDTH 12 0
BBX 11 19 0 0
BITMAP
0100
0180
0700
0400
0000
7FE0
0060
00C0
0080
0100
0300
0600
0400
0800
1800
3000
6000
4000
FFE0
ENDCHAR
STARTCHAR zacute
ENCODING 378
SWIDTH 434 0
DWIDTH 9 0
BBX 8 15 0 0
BITMAP
06
0C
08
18
00
FF
03
06
04
08
18
30
20
40
FF
ENDCHAR
STARTCHAR Zdotaccent
ENCODING 379
SWIDTH 582 0
DWIDTH 12 0
BBX 11 17 0 0
BITMAP
0600
0600
0000
7FE0
0060
00C0
0080
0100
0300
0600
0400
0800
1800
3000
6000
4000
FFE0
ENDCHAR
STARTCHAR zdotaccent
ENCODING 380
SWIDTH 434 0
DWIDTH 9 0
BBX 8 14 0 0
BITMAP
0C
18
00
00
FF
03
06
04
08
18
30
20
40
FF
ENDCHAR
STARTCHAR Zcaron
ENCODING 381
SWIDTH 582 0
DWIDTH 12 0
BBX 11 18 0 0
BITMAP
1080
1980
0F00
0600
7FE0
0060
00C0
0080
0100
0300
0600
0400
0800
1800
3000
6000
4000
FFE0
ENDCHAR
STARTCHAR zcaron
ENCODING 382
SWIDTH 434 0
DWIDTH 9 0
BBX 8 15 0 0
BITMAP
42
66
3C
18
00
FF
03
06
04
08
18
30
20
40
FF
ENDCHAR
STARTCHAR uni021A.dup1
ENCODING 538
SWIDTH 522 0
DWIDTH 10 0
BBX 10 18 0 -4
BITMAP
FFC0
0400
0400
0400
0400
0400
0400
0400
0400
0400
0400
0400
0400
0400
0400
0C00
0C00
0800
ENDCHAR
STARTCHAR uni021B
ENCODING 539
SWIDTH 286 0
DWIDTH 6 0
BBX 7 18 -1 -4
BITMAP
10
10
10
10
FE
10
10
10
10
10
10
10
10
10
10
10
10
10
ENDCHAR
STARTCHAR uni0237
ENCODING 567
SWIDTH 236 0
DWIDTH 5 0
BBX 5 14 -2 -4
BITMAP
08
08
08
08
08
08
08
08
08
08
08
88
D8
70
ENDCHAR
STARTCHAR circumflex
ENCODING 710
SWIDTH 302 0
DWIDTH 6 0
BBX 6 4 0 11
BITMAP
10
30
78
84
ENDCHAR
STARTCHAR caron
ENCODING 711
SWIDTH 302 0
DWIDTH 6 0
BBX 6 4 0 11
BITMAP
84
CC
78
30
ENDCHAR
STARTCHAR breve
ENCODING 728
SWIDTH 321 0
DWIDTH 6 0
BBX 6 3 0 12
BITMAP
84
C4
78
ENDCHAR
STARTCHAR dotaccent
ENCODING 729
SWIDTH 112 0
DWIDTH 2 0
BBX 2 2 0 12
BITMAP
C0
C0
ENDCHAR
STARTCHAR ring
ENCODING 730
SWIDTH 241 0
DWIDTH 5 0
BBX 5 4 0 11
BITMAP
70
88
88
70
ENDCHAR
STARTCHAR ogonek
ENCODING 731
SWIDTH 205 0
DWIDTH 4 0
BBX 4 5 0 -4
BITMAP
60
40
80
80
70
ENDCHAR
STARTCHAR tilde
ENCODING 732
SWIDTH 360 0
DWIDTH 7 0
BBX 7 3 0 12
BITMAP
62
D2
8C
ENDCHAR
STARTCHAR hungarumlaut
ENCODING 733
SWIDTH 350 0
DWIDTH 7 0
BBX 7 4 0 11
BITMAP
36
6C
58
90
ENDCHAR
STARTCHAR gravecomb
ENCODING 768
SWIDTH 0 0
DWIDTH 0 0
BBX 4 4 -4 11
BITMAP
C0
60
20
10
ENDCHAR
STARTCHAR acutecomb
ENCODING 769
SWIDTH 0 0
DWIDTH 0 0
BBX 4 4 -4 11
BITMAP
30
30
60
C0
ENDCHAR
STARTCHAR uni0302
ENCODING 770
SWIDTH 0 0
DWIDTH 0 0
BBX 6 4 -6 11
BITMAP
10
30
78
84
ENDCHAR
STARTCHAR tildecomb
ENCODING 771
SWIDTH 0 0
DWIDTH 0 0
BBX 7 3 -7 12
BITMAP
62
96
9C
ENDCHAR
STARTCHAR uni0304
ENCODING 772
SWIDTH 0 0
DWIDTH 0 0
BBX 5 1 -5 12
BITMAP
F8
ENDCHAR
STARTCHAR uni0306
ENCODING 774
SWIDTH 0 0
DWIDTH 0 0
BBX 6 3 -6 12
BITMAP
84
8C
78
ENDCHAR
STARTCHAR uni0307
ENCODING 775
SWIDTH 0 0
DWIDTH 0 0
BBX 2 2 -2 12
BITMAP
C0
C0
ENDCHAR
STARTCHAR uni0308
ENCODING 776
SWIDTH 0 0
DWIDTH 0 0
BBX 5 2 -5 12
BITMAP
D8
D8
ENDCHAR
STARTCHAR uni030A
ENCODING 778
SWIDTH 0 0
DWIDTH 0 0
BBX 5 4 -5 11
BITMAP
70
C8
88
70
ENDCHAR
STARTCHAR uni030B
ENCODING 779
SWIDTH 0 0
DWIDTH 0 0
BBX 7 4 -7 11
BITMAP
26
6C
D8
90
ENDCHAR
STARTCHAR uni030C
ENCODING 780
SWIDTH 0 0
DWIDTH 0 0
BBX 6 4 -6 11
BITMAP
84
CC
78
30
ENDCHAR
STARTCHAR uni0326
ENCODING 806
SWIDTH 0 0
DWIDTH 0 0
BBX 2 4 -2 -4
BITMAP
40
C0
40
80
ENDCHAR
STARTCHAR uni0327
ENCODING 807
SWIDTH 0 0
DWIDTH 0 0
BBX 3 5 -3 -4
BITMAP
80
C0
20
A0
E0
ENDCHAR
STARTCHAR uni0328
ENCODING 808
SWIDTH 0 0
DWIDTH 0 0
BBX 4 5 -4 -4
BITMAP
60
C0
80
80
F0
ENDCHAR
STARTCHAR endash
ENCODING 8211
SWIDTH 600 0
DWIDTH 12 0
BBX 10 1 1 5
BITMAP
FFC0
ENDCHAR
STARTCHAR emdash
ENCODING 8212
SWIDTH 824 0
DWIDTH 16 0
BBX 14 1 1 5
BITMAP
FFFC
ENDCHAR
STARTCHAR quoteleft
ENCODING 8216
SWIDTH 185 0
DWIDTH 4 0
BBX 2 4 1 11
BITMAP
40
40
C0
C0
ENDCHAR
STARTCHAR quoteright
ENCODING 8217
SWIDTH 185 0
DWIDTH 4 0
BBX 2 4 1 11
BITMAP
80
C0
80
80
ENDCHAR
STARTCHAR quotesinglbase
ENCODING 8218
SWIDTH 265 0
DWIDTH 5 0
BBX 2 4 2 -2
BITMAP
80
C0
80
80
ENDCHAR
STARTCHAR quotedblleft
ENCODING 8220
SWIDTH 308 0
DWIDTH 6 0
BBX 5 4 1 11
BITMAP
50
D8
90
90
ENDCHAR
STARTCHAR quotedblright
ENCODING 8221
SWIDTH 326 0
DWIDTH 7 0
BBX 4 4 1 11
BITMAP
90
D0
90
B0
ENDCHAR
STARTCHAR quotedblbase
ENCODING 8222
SWIDTH 373 0
DWIDTH 7 0
BBX 5 4 1 -2
BITMAP
48
48
48
90
ENDCHAR
STARTCHAR bullet
ENCODING 8226
SWIDTH 313 0
DWIDTH 6 0
BBX 4 4 1 3
BITMAP
60
F0
F0
60
ENDCHAR
STARTCHAR ellipsis
ENCODING 8230
SWIDTH 664 0
DWIDTH 13 0
BBX 11 2 1 0
BITMAP
8420
8420
ENDCHAR
STARTCHAR guilsinglleft
ENCODING 8249
SWIDTH 345 0
DWIDTH 7 0
BBX 5 7 1 1
BITMAP
08
30
60
C0
60
30
18
ENDCHAR
STARTCHAR guilsinglright
ENCODING 8250
SWIDTH 346 0
DWIDTH 7 0
BBX 5 7 1 1
BITMAP
80
60
30
18
30
60
C0
ENDCHAR
STARTCHAR fraction
ENCODING 8260
SWIDTH 160 0
DWIDTH 3 0
BBX 8 14 -2 0
BITMAP
01
02
06
04
0C
08
18
10
20
20
40
40
80
80
ENDCHAR
STARTCHAR uni2074
ENCODING 8308
SWIDTH 262 0
DWIDTH 5 0
BBX 5 7 0 9
BITMAP
18
38
38
58
F8
18
10
ENDCHAR
STARTCHAR Euro
ENCODING 8364
SWIDTH 667 0
DWIDTH 13 0
BBX 11 14 1 0
BITMAP
03C0
0C60
0800
1000
3000
FF00
2000
2000
FF00
2000
2000
1000
0C40
07C0
ENDCHAR
STARTCHAR trademark
ENCODING 8482
SWIDTH 487 0
DWIDTH 10 0
BBX 9 4 0 10
BITMAP
F500
2D00
2E80
2A80
ENDCHAR
STARTCHAR minus
ENCODING 8722
SWIDTH 446 0
DWIDTH 9 0
BBX 7 1 1 4
BITMAP
FE
ENDCHAR
STARTCHAR uni2215
ENCODING 8725
SWIDTH 394 0
DWIDTH 8 0
BBX 6 19 1 -4
BITMAP
04
04
08
08
08
08
10
10
10
10
20
20
20
40
40
40
40
80
80
ENDCHAR
STARTCHAR .notdef
ENCODING -1
SWIDTH 504 0
DWIDTH 10 0
BBX 10 14 0 0
BITMAP
FFC0
C0C0
A140
A140
9240
9E40
8C40
8C40
9C40
9240
A340
A140
C0C0
FFC0
ENDCHAR
STARTCHAR NULL
ENCODING -1
SWIDTH 600 0
DWIDTH 12 0
BBX 1 1 0 0
BITMAP
00
ENDCHAR
STARTCHAR uni030C.alt
ENCODING -1
SWIDTH 0 0
DWIDTH 0 0
BBX 2 3 -2 11
BITMAP
C0
40
80
ENDCHAR
STARTCHAR uni0308.case
ENCODING -1
SWIDTH 0 0
DWIDTH 0 0
BBX 5 2 -5 15
BITMAP
D8
D8
ENDCHAR
STARTCHAR uni0307.case
ENCODING -1
SWIDTH 0 0
DWIDTH 0 0
BBX 2 2 -2 15
BITMAP
C0
C0
ENDCHAR
STARTCHAR gravecomb.case
ENCODING -1
SWIDTH 0 0
DWIDTH 0 0
BBX 4 4 -4 15
BITMAP
80
C0
60
10
ENDCHAR
STARTCHAR acutecomb.case
ENCODING -1
SWIDTH 0 0
DWIDTH 0 0
BBX 4 4 -4 15
BITMAP
10
30
60
C0
ENDCHAR
STARTCHAR uni030B.case
ENCODING -1
SWIDTH 0 0
DWIDTH 0 0
BBX 7 4 -7 15
BITMAP
22
36
6C
90
ENDCHAR
STARTCHAR uni0302.case
ENCODING -1
SWIDTH 0 0
DWIDTH 0 0
BBX 6 4 -6 14
BITMAP
10
30
78
84
ENDCHAR
STARTCHAR uni030C.case
ENCODING -1
SWIDTH 0 0
DWIDTH 0 0
BBX 6 4 -6 14
BITMAP
84
CC
78
30
ENDCHAR
STARTCHAR uni0306.case
ENCODING -1
SWIDTH 0 0
DWIDTH 0 0
BBX 6 3 -6 15
BITMAP
84
8C
78
ENDCHAR
STARTCHAR uni030A.case
ENCODING -1
SWIDTH 0 0
DWIDTH 0 0
BBX 5 4 -5 14
BITMAP
70
C8
88
70
ENDCHAR
STARTCHAR tildecomb.case
ENCODING -1
SWIDTH 0 0
DWIDTH 0 0
BBX 7 3 -7 15
BITMAP
62
96
9C
ENDCHAR
STARTCHAR uni0304.case
ENCODING -1
SWIDTH 0 0
DWIDTH 0 0
BBX 5 1 -5 15
BITMAP
F8
ENDCHAR
STARTCHAR uni0327.case
ENCODING -1
SWIDTH 0 0
DWIDTH 0 0
BBX 3 5 -3 -4
BITMAP
80
C0
20
A0
E0
ENDCHAR
STARTCHAR uni0328.case
ENCODING -1
SWIDTH 0 0
DWIDTH 0 0
BBX 4 5 -4 -4
BITMAP
60
C0
80
90
70
ENDCHAR
ENDFONT
